<svg width="36" height="35" viewBox="0 0 36 35" fill="none" xmlns="http://www.w3.org/2000/svg">
<g clip-path="url(#clip0_139_136)">
<path fill-rule="evenodd" clip-rule="evenodd" d="M6.65425 3.58887H34.0887C35.8824 3.58887 35.7853 4.2924 35.6295 6.08683L34.6092 18.6877C34.4357 20.6958 34.5827 20.2087 32.3862 20.5135L12.2088 23.0001L13.2762 25.9993C22.0299 25.9993 26.2612 25.9993 35.0091 25.9993C35.3031 27.0646 35.703 28.7992 35.9971 29.987H32.3862L32.0392 28.7736C24.7469 28.7736 21.9681 28.7736 14.6729 28.7736C10.6886 28.7081 11.0885 29.7534 10.1328 26.4181L3.28743 2.30998H0V0H5.76623C6.03382 0.971273 6.40431 2.6062 6.65425 3.58887ZM15.7873 29.5996C17.3252 29.5996 18.5749 30.8101 18.5749 32.2998C18.5749 33.7923 17.3252 35 15.7873 35C14.2465 35 12.9998 33.7923 12.9998 32.2998C12.9998 30.8101 14.2465 29.5996 15.7873 29.5996ZM27.2845 29.5996C28.8223 29.5996 30.072 30.8101 30.072 32.2998C30.072 33.7923 28.8223 35 27.2845 35C25.7437 35 24.4969 33.7923 24.4969 32.2998C24.4969 30.8101 25.7466 29.5996 27.2845 29.5996Z" fill="black"/>
</g>
<defs>
<clipPath id="clip0_139_136">
<rect width="36" height="35" fill="white"/>
</clipPath>
</defs>
</svg>
