<svg width="45" height="45" viewBox="0 0 45 45" fill="none" xmlns="http://www.w3.org/2000/svg">
<path d="M9.375 39.375C8.34375 39.375 7.45313 39.0156 6.70313 38.2969C5.98438 37.5469 5.625 36.6562 5.625 35.625V9.375C5.625 8.34375 5.98438 7.46875 6.70313 6.75C7.45313 6 8.34375 5.625 9.375 5.625H35.625C36.6562 5.625 37.5313 6 38.25 6.75C39 7.46875 39.375 8.34375 39.375 9.375V35.625C39.375 36.6562 39 37.5469 38.25 38.2969C37.5313 39.0156 36.6562 39.375 35.625 39.375H9.375ZM22.5 30C23.6875 30 24.7656 29.6562 25.7344 28.9687C26.7031 28.2812 27.375 27.375 27.75 26.25H35.625V9.375H9.375V26.25H17.25C17.625 27.375 18.2969 28.2812 19.2656 28.9687C20.2344 29.6562 21.3125 30 22.5 30Z" fill="#1D1B20"/>
</svg>
