<svg width="42" height="41" viewBox="0 0 42 41" fill="none" xmlns="http://www.w3.org/2000/svg">
<rect width="41.7455" height="41" rx="16" fill="#FAF9F9"/>
<path d="M29.9848 31.1341V28.8356C29.9848 27.6164 29.5005 26.4472 28.6384 25.5851C27.7763 24.723 26.607 24.2386 25.3878 24.2386H16.1939C14.9747 24.2386 13.8054 24.723 12.9433 25.5851C12.0812 26.4472 11.5969 27.6164 11.5969 28.8356V31.1341M25.3878 15.0447C25.3878 17.5835 23.3297 19.6417 20.7909 19.6417C18.252 19.6417 16.1939 17.5835 16.1939 15.0447C16.1939 12.5059 18.252 10.4477 20.7909 10.4477C23.3297 10.4477 25.3878 12.5059 25.3878 15.0447Z" stroke="#1E1E1E" stroke-width="3" stroke-linecap="round" stroke-linejoin="round"/>
</svg>
