<svg width="79" height="44" viewBox="0 0 79 44" fill="none" xmlns="http://www.w3.org/2000/svg">
<g filter="url(#filter0_d_139_92)">
<mask id="path-1-outside-1_139_92" maskUnits="userSpaceOnUse" x="3.23865" y="-0.81818" width="72" height="37" fill="black">
<rect fill="white" x="3.23865" y="-0.81818" width="72" height="37"/>
<path d="M8.01706 1V27.1818H5.00001V1H8.01706ZM21.5203 27.5909C19.7475 27.5909 18.1921 27.169 16.8541 26.3253C15.5245 25.4815 14.4847 24.3011 13.7347 22.7841C12.9933 21.267 12.6225 19.4943 12.6225 17.4659C12.6225 15.4205 12.9933 13.6349 13.7347 12.1094C14.4847 10.5838 15.5245 9.39915 16.8541 8.5554C18.1921 7.71165 19.7475 7.28977 21.5203 7.28977C23.293 7.28977 24.8441 7.71165 26.1737 8.5554C27.5117 9.39915 28.5515 10.5838 29.293 12.1094C30.043 13.6349 30.418 15.4205 30.418 17.4659C30.418 19.4943 30.043 21.267 29.293 22.7841C28.5515 24.3011 27.5117 25.4815 26.1737 26.3253C24.8441 27.169 23.293 27.5909 21.5203 27.5909ZM21.5203 24.8807C22.8668 24.8807 23.9748 24.5355 24.8441 23.8452C25.7134 23.1548 26.3569 22.2472 26.7745 21.1222C27.1921 19.9972 27.4009 18.7784 27.4009 17.4659C27.4009 16.1534 27.1921 14.9304 26.7745 13.7969C26.3569 12.6634 25.7134 11.7472 24.8441 11.0483C23.9748 10.3494 22.8668 10 21.5203 10C20.1737 10 19.0657 10.3494 18.1964 11.0483C17.3271 11.7472 16.6836 12.6634 16.266 13.7969C15.8484 14.9304 15.6396 16.1534 15.6396 17.4659C15.6396 18.7784 15.8484 19.9972 16.266 21.1222C16.6836 22.2472 17.3271 23.1548 18.1964 23.8452C19.0657 24.5355 20.1737 24.8807 21.5203 24.8807ZM42.9496 34.9545C41.4922 34.9545 40.2394 34.767 39.1911 34.392C38.1428 34.0256 37.2692 33.5398 36.5703 32.9347C35.88 32.3381 35.3303 31.6989 34.9212 31.017L37.3246 29.3295C37.5973 29.6875 37.9425 30.0966 38.3601 30.5568C38.7777 31.0256 39.3487 31.4304 40.0732 31.7713C40.8061 32.1207 41.7649 32.2955 42.9496 32.2955C44.5348 32.2955 45.8431 31.9119 46.8743 31.1449C47.9056 30.3778 48.4212 29.1761 48.4212 27.5398V23.5511H48.1655C47.9439 23.9091 47.6286 24.3523 47.2195 24.8807C46.8189 25.4006 46.2394 25.8651 45.4808 26.2741C44.7308 26.6747 43.7166 26.875 42.4382 26.875C40.853 26.875 39.4297 26.5 38.1683 25.75C36.9155 25 35.9226 23.9091 35.1896 22.4773C34.4652 21.0455 34.103 19.3068 34.103 17.2614C34.103 15.25 34.4567 13.4986 35.1641 12.0071C35.8715 10.5071 36.8558 9.34801 38.1172 8.52983C39.3786 7.70313 40.8359 7.28977 42.4894 7.28977C43.7678 7.28977 44.782 7.50284 45.532 7.92898C46.2905 8.34659 46.87 8.82387 47.2706 9.3608C47.6797 9.88921 47.995 10.3239 48.2166 10.6648H48.5234V7.54546H51.4382V27.7443C51.4382 29.4318 51.0547 30.804 50.2877 31.8608C49.5291 32.9261 48.5064 33.706 47.2195 34.2003C45.9411 34.7031 44.5178 34.9545 42.9496 34.9545ZM42.8473 24.1648C44.0575 24.1648 45.0803 23.8878 45.9155 23.3338C46.7507 22.7798 47.3857 21.983 47.8203 20.9432C48.255 19.9034 48.4723 18.6591 48.4723 17.2102C48.4723 15.7955 48.2592 14.5469 47.8331 13.4645C47.407 12.3821 46.7763 11.5341 45.9411 10.9205C45.1058 10.3068 44.0746 10 42.8473 10C41.5689 10 40.5036 10.3239 39.6513 10.9716C38.8075 11.6193 38.1726 12.4886 37.7465 13.5795C37.3288 14.6705 37.12 15.8807 37.12 17.2102C37.12 18.5739 37.3331 19.7798 37.7592 20.8281C38.1939 21.8679 38.8331 22.6861 39.6769 23.2827C40.5291 23.8707 41.5859 24.1648 42.8473 24.1648ZM64.9382 27.5909C63.1655 27.5909 61.6101 27.169 60.272 26.3253C58.9425 25.4815 57.9027 24.3011 57.1527 22.7841C56.4112 21.267 56.0405 19.4943 56.0405 17.4659C56.0405 15.4205 56.4112 13.6349 57.1527 12.1094C57.9027 10.5838 58.9425 9.39915 60.272 8.5554C61.6101 7.71165 63.1655 7.28977 64.9382 7.28977C66.7109 7.28977 68.2621 7.71165 69.5916 8.5554C70.9297 9.39915 71.9695 10.5838 72.7109 12.1094C73.4609 13.6349 73.8359 15.4205 73.8359 17.4659C73.8359 19.4943 73.4609 21.267 72.7109 22.7841C71.9695 24.3011 70.9297 25.4815 69.5916 26.3253C68.2621 27.169 66.7109 27.5909 64.9382 27.5909ZM64.9382 24.8807C66.2848 24.8807 67.3928 24.5355 68.2621 23.8452C69.1314 23.1548 69.7749 22.2472 70.1925 21.1222C70.6101 19.9972 70.8189 18.7784 70.8189 17.4659C70.8189 16.1534 70.6101 14.9304 70.1925 13.7969C69.7749 12.6634 69.1314 11.7472 68.2621 11.0483C67.3928 10.3494 66.2848 10 64.9382 10C63.5916 10 62.4837 10.3494 61.6144 11.0483C60.745 11.7472 60.1016 12.6634 59.684 13.7969C59.2663 14.9304 59.0575 16.1534 59.0575 17.4659C59.0575 18.7784 59.2663 19.9972 59.684 21.1222C60.1016 22.2472 60.745 23.1548 61.6144 23.8452C62.4837 24.5355 63.5916 24.8807 64.9382 24.8807Z"/>
</mask>
<path d="M8.01706 1V27.1818H5.00001V1H8.01706ZM21.5203 27.5909C19.7475 27.5909 18.1921 27.169 16.8541 26.3253C15.5245 25.4815 14.4847 24.3011 13.7347 22.7841C12.9933 21.267 12.6225 19.4943 12.6225 17.4659C12.6225 15.4205 12.9933 13.6349 13.7347 12.1094C14.4847 10.5838 15.5245 9.39915 16.8541 8.5554C18.1921 7.71165 19.7475 7.28977 21.5203 7.28977C23.293 7.28977 24.8441 7.71165 26.1737 8.5554C27.5117 9.39915 28.5515 10.5838 29.293 12.1094C30.043 13.6349 30.418 15.4205 30.418 17.4659C30.418 19.4943 30.043 21.267 29.293 22.7841C28.5515 24.3011 27.5117 25.4815 26.1737 26.3253C24.8441 27.169 23.293 27.5909 21.5203 27.5909ZM21.5203 24.8807C22.8668 24.8807 23.9748 24.5355 24.8441 23.8452C25.7134 23.1548 26.3569 22.2472 26.7745 21.1222C27.1921 19.9972 27.4009 18.7784 27.4009 17.4659C27.4009 16.1534 27.1921 14.9304 26.7745 13.7969C26.3569 12.6634 25.7134 11.7472 24.8441 11.0483C23.9748 10.3494 22.8668 10 21.5203 10C20.1737 10 19.0657 10.3494 18.1964 11.0483C17.3271 11.7472 16.6836 12.6634 16.266 13.7969C15.8484 14.9304 15.6396 16.1534 15.6396 17.4659C15.6396 18.7784 15.8484 19.9972 16.266 21.1222C16.6836 22.2472 17.3271 23.1548 18.1964 23.8452C19.0657 24.5355 20.1737 24.8807 21.5203 24.8807ZM42.9496 34.9545C41.4922 34.9545 40.2394 34.767 39.1911 34.392C38.1428 34.0256 37.2692 33.5398 36.5703 32.9347C35.88 32.3381 35.3303 31.6989 34.9212 31.017L37.3246 29.3295C37.5973 29.6875 37.9425 30.0966 38.3601 30.5568C38.7777 31.0256 39.3487 31.4304 40.0732 31.7713C40.8061 32.1207 41.7649 32.2955 42.9496 32.2955C44.5348 32.2955 45.8431 31.9119 46.8743 31.1449C47.9056 30.3778 48.4212 29.1761 48.4212 27.5398V23.5511H48.1655C47.9439 23.9091 47.6286 24.3523 47.2195 24.8807C46.8189 25.4006 46.2394 25.8651 45.4808 26.2741C44.7308 26.6747 43.7166 26.875 42.4382 26.875C40.853 26.875 39.4297 26.5 38.1683 25.75C36.9155 25 35.9226 23.9091 35.1896 22.4773C34.4652 21.0455 34.103 19.3068 34.103 17.2614C34.103 15.25 34.4567 13.4986 35.1641 12.0071C35.8715 10.5071 36.8558 9.34801 38.1172 8.52983C39.3786 7.70313 40.8359 7.28977 42.4894 7.28977C43.7678 7.28977 44.782 7.50284 45.532 7.92898C46.2905 8.34659 46.87 8.82387 47.2706 9.3608C47.6797 9.88921 47.995 10.3239 48.2166 10.6648H48.5234V7.54546H51.4382V27.7443C51.4382 29.4318 51.0547 30.804 50.2877 31.8608C49.5291 32.9261 48.5064 33.706 47.2195 34.2003C45.9411 34.7031 44.5178 34.9545 42.9496 34.9545ZM42.8473 24.1648C44.0575 24.1648 45.0803 23.8878 45.9155 23.3338C46.7507 22.7798 47.3857 21.983 47.8203 20.9432C48.255 19.9034 48.4723 18.6591 48.4723 17.2102C48.4723 15.7955 48.2592 14.5469 47.8331 13.4645C47.407 12.3821 46.7763 11.5341 45.9411 10.9205C45.1058 10.3068 44.0746 10 42.8473 10C41.5689 10 40.5036 10.3239 39.6513 10.9716C38.8075 11.6193 38.1726 12.4886 37.7465 13.5795C37.3288 14.6705 37.12 15.8807 37.12 17.2102C37.12 18.5739 37.3331 19.7798 37.7592 20.8281C38.1939 21.8679 38.8331 22.6861 39.6769 23.2827C40.5291 23.8707 41.5859 24.1648 42.8473 24.1648ZM64.9382 27.5909C63.1655 27.5909 61.6101 27.169 60.272 26.3253C58.9425 25.4815 57.9027 24.3011 57.1527 22.7841C56.4112 21.267 56.0405 19.4943 56.0405 17.4659C56.0405 15.4205 56.4112 13.6349 57.1527 12.1094C57.9027 10.5838 58.9425 9.39915 60.272 8.5554C61.6101 7.71165 63.1655 7.28977 64.9382 7.28977C66.7109 7.28977 68.2621 7.71165 69.5916 8.5554C70.9297 9.39915 71.9695 10.5838 72.7109 12.1094C73.4609 13.6349 73.8359 15.4205 73.8359 17.4659C73.8359 19.4943 73.4609 21.267 72.7109 22.7841C71.9695 24.3011 70.9297 25.4815 69.5916 26.3253C68.2621 27.169 66.7109 27.5909 64.9382 27.5909ZM64.9382 24.8807C66.2848 24.8807 67.3928 24.5355 68.2621 23.8452C69.1314 23.1548 69.7749 22.2472 70.1925 21.1222C70.6101 19.9972 70.8189 18.7784 70.8189 17.4659C70.8189 16.1534 70.6101 14.9304 70.1925 13.7969C69.7749 12.6634 69.1314 11.7472 68.2621 11.0483C67.3928 10.3494 66.2848 10 64.9382 10C63.5916 10 62.4837 10.3494 61.6144 11.0483C60.745 11.7472 60.1016 12.6634 59.684 13.7969C59.2663 14.9304 59.0575 16.1534 59.0575 17.4659C59.0575 18.7784 59.2663 19.9972 59.684 21.1222C60.1016 22.2472 60.745 23.1548 61.6144 23.8452C62.4837 24.5355 63.5916 24.8807 64.9382 24.8807Z" fill="black"/>
<path d="M8.01706 1H9.01706V0H8.01706V1ZM8.01706 27.1818V28.1818H9.01706V27.1818H8.01706ZM5.00001 27.1818H4.00001V28.1818H5.00001V27.1818ZM5.00001 1V0H4.00001V1H5.00001ZM8.01706 1H7.01706V27.1818H8.01706H9.01706V1H8.01706ZM8.01706 27.1818V26.1818H5.00001V27.1818V28.1818H8.01706V27.1818ZM5.00001 27.1818H6.00001V1H5.00001H4.00001V27.1818H5.00001ZM5.00001 1V2H8.01706V1V0H5.00001V1ZM16.8541 26.3253L16.3182 27.1696L16.3207 27.1712L16.8541 26.3253ZM13.7347 22.7841L12.8363 23.2232L12.8383 23.2273L13.7347 22.7841ZM13.7347 12.1094L12.8373 11.6682L12.8353 11.6722L13.7347 12.1094ZM16.8541 8.5554L16.3207 7.70952L16.3182 7.71107L16.8541 8.5554ZM26.1737 8.5554L25.6378 9.39973L25.6403 9.40127L26.1737 8.5554ZM29.293 12.1094L28.3936 12.5465L28.3956 12.5506L29.293 12.1094ZM29.293 22.7841L28.3965 22.3409L28.3946 22.345L29.293 22.7841ZM26.1737 26.3253L25.6403 25.4794L25.6378 25.481L26.1737 26.3253ZM24.8441 23.8452L24.2222 23.0621V23.0621L24.8441 23.8452ZM26.7745 21.1222L27.712 21.4702V21.4702L26.7745 21.1222ZM26.7745 13.7969L27.7129 13.4512V13.4512L26.7745 13.7969ZM24.8441 11.0483L25.4707 10.2689V10.2689L24.8441 11.0483ZM18.1964 11.0483L17.5698 10.2689V10.2689L18.1964 11.0483ZM16.266 13.7969L15.3276 13.4512V13.4512L16.266 13.7969ZM16.266 21.1222L15.3285 21.4702V21.4702L16.266 21.1222ZM18.1964 23.8452L18.8183 23.0621V23.0621L18.1964 23.8452ZM21.5203 27.5909V26.5909C19.9128 26.5909 18.5471 26.2106 17.3874 25.4794L16.8541 26.3253L16.3207 27.1712C17.8372 28.1274 19.5822 28.5909 21.5203 28.5909V27.5909ZM16.8541 26.3253L17.3899 25.481C16.2266 24.7427 15.3063 23.7065 14.6312 22.3409L13.7347 22.7841L12.8383 23.2273C13.6632 24.8958 14.8224 26.2204 16.3182 27.1696L16.8541 26.3253ZM13.7347 22.7841L14.6332 22.345C13.9707 20.9895 13.6225 19.3724 13.6225 17.4659H12.6225H11.6225C11.6225 19.6163 12.0159 21.5446 12.8363 23.2232L13.7347 22.7841ZM12.6225 17.4659H13.6225C13.6225 15.5412 13.9711 13.9107 14.6341 12.5465L13.7347 12.1094L12.8353 11.6722C12.0154 13.3592 11.6225 15.2998 11.6225 17.4659H12.6225ZM13.7347 12.1094L14.6322 12.5506C15.3077 11.1764 16.228 10.1371 17.3899 9.39973L16.8541 8.5554L16.3182 7.71107C14.821 8.66122 13.6618 9.99117 12.8373 11.6682L13.7347 12.1094ZM16.8541 8.5554L17.3874 9.40127C18.5471 8.67004 19.9128 8.28977 21.5203 8.28977V7.28977V6.28977C19.5822 6.28977 17.8372 6.75326 16.3207 7.70953L16.8541 8.5554ZM21.5203 7.28977V8.28977C23.1278 8.28977 24.4881 8.67006 25.6378 9.39973L26.1737 8.5554L26.7095 7.71107C25.2002 6.75323 23.4582 6.28977 21.5203 6.28977V7.28977ZM26.1737 8.5554L25.6403 9.40127C26.8092 10.1383 27.7275 11.176 28.3936 12.5465L29.293 12.1094L30.1924 11.6722C29.3755 9.99159 28.2143 8.65996 26.707 7.70953L26.1737 8.5554ZM29.293 12.1094L28.3956 12.5506C29.0657 13.9137 29.418 15.5427 29.418 17.4659H30.418H31.418C31.418 15.2982 31.0202 13.3562 30.1904 11.6682L29.293 12.1094ZM30.418 17.4659H29.418C29.418 19.3708 29.0662 20.9864 28.3965 22.3409L29.293 22.7841L30.1894 23.2273C31.0198 21.5477 31.418 19.6178 31.418 17.4659H30.418ZM29.293 22.7841L28.3946 22.345C27.7289 23.7069 26.8106 24.7415 25.6403 25.4794L26.1737 26.3253L26.707 27.1712C28.2129 26.2216 29.3741 24.8954 30.1914 23.2232L29.293 22.7841ZM26.1737 26.3253L25.6378 25.481C24.4881 26.2106 23.1278 26.5909 21.5203 26.5909V27.5909V28.5909C23.4582 28.5909 25.2002 28.1275 26.7095 27.1696L26.1737 26.3253ZM21.5203 24.8807V25.8807C23.043 25.8807 24.3845 25.4871 25.466 24.6283L24.8441 23.8452L24.2222 23.0621C23.5651 23.5839 22.6907 23.8807 21.5203 23.8807V24.8807ZM24.8441 23.8452L25.466 24.6283C26.4898 23.8153 27.2362 22.7519 27.712 21.4702L26.7745 21.1222L25.837 20.7742C25.4776 21.7424 24.9371 22.4944 24.2222 23.0621L24.8441 23.8452ZM26.7745 21.1222L27.712 21.4702C28.1747 20.2238 28.4009 18.8861 28.4009 17.4659H27.4009H26.4009C26.4009 18.6708 26.2096 19.7705 25.837 20.7742L26.7745 21.1222ZM27.4009 17.4659H28.4009C28.4009 16.0457 28.1746 14.7046 27.7129 13.4512L26.7745 13.7969L25.8362 14.1426C26.2096 15.1562 26.4009 16.2612 26.4009 17.4659H27.4009ZM26.7745 13.7969L27.7129 13.4512C27.2379 12.1621 26.493 11.0908 25.4707 10.2689L24.8441 11.0483L24.2176 11.8277C24.9339 12.4035 25.4759 13.1646 25.8362 14.1426L26.7745 13.7969ZM24.8441 11.0483L25.4707 10.2689C24.389 9.39938 23.0458 9 21.5203 9V10V11C22.6879 11 23.5606 11.2995 24.2176 11.8277L24.8441 11.0483ZM21.5203 10V9C19.9947 9 18.6515 9.39938 17.5698 10.2689L18.1964 11.0483L18.8229 11.8277C19.48 11.2995 20.3526 11 21.5203 11V10ZM18.1964 11.0483L17.5698 10.2689C16.5475 11.0908 15.8026 12.1621 15.3276 13.4512L16.266 13.7969L17.2043 14.1426C17.5646 13.1646 18.1066 12.4035 18.8229 11.8277L18.1964 11.0483ZM16.266 13.7969L15.3276 13.4512C14.8659 14.7046 14.6396 16.0457 14.6396 17.4659H15.6396H16.6396C16.6396 16.2612 16.8309 15.1562 17.2043 14.1426L16.266 13.7969ZM15.6396 17.4659H14.6396C14.6396 18.8861 14.8658 20.2238 15.3285 21.4702L16.266 21.1222L17.2035 20.7742C16.8309 19.7705 16.6396 18.6708 16.6396 17.4659H15.6396ZM16.266 21.1222L15.3285 21.4702C15.8043 22.7519 16.5507 23.8153 17.5745 24.6283L18.1964 23.8452L18.8183 23.0621C18.1034 22.4944 17.5629 21.7424 17.2035 20.7742L16.266 21.1222ZM18.1964 23.8452L17.5745 24.6283C18.656 25.4871 19.9975 25.8807 21.5203 25.8807V24.8807V23.8807C20.3498 23.8807 19.4754 23.5839 18.8183 23.0621L18.1964 23.8452ZM39.1911 34.392L39.5279 33.4505L39.5211 33.4481L39.1911 34.392ZM36.5703 32.9347L37.2249 32.1787L37.2242 32.178L36.5703 32.9347ZM34.9212 31.017L34.3465 30.1986L33.5848 30.7335L34.0637 31.5315L34.9212 31.017ZM37.3246 29.3295L38.12 28.7235L37.5371 27.9584L36.75 28.5111L37.3246 29.3295ZM38.3601 30.5568L39.1068 29.8916L39.1007 29.8848L38.3601 30.5568ZM40.0732 31.7713L40.5035 30.8686L40.499 30.8665L40.0732 31.7713ZM46.8743 31.1449L47.4711 31.9473V31.9473L46.8743 31.1449ZM48.4212 23.5511H49.4212V22.5511H48.4212V23.5511ZM48.1655 23.5511V22.5511H47.6084L47.3152 23.0248L48.1655 23.5511ZM47.2195 24.8807L46.4287 24.2685L46.4273 24.2703L47.2195 24.8807ZM45.4808 26.2742L45.9519 27.1562L45.9555 27.1543L45.4808 26.2742ZM38.1683 25.75L37.6547 26.608L37.6573 26.6095L38.1683 25.75ZM35.1896 22.4773L34.2973 22.9287L34.2995 22.9329L35.1896 22.4773ZM35.1641 12.0071L36.0676 12.4356L36.0685 12.4336L35.1641 12.0071ZM38.1172 8.52983L38.6614 9.3688L38.6654 9.3662L38.1172 8.52983ZM45.532 7.92898L45.0379 8.79851L45.0497 8.80499L45.532 7.92898ZM47.2706 9.3608L46.4691 9.95876L46.4744 9.96591L46.4799 9.97297L47.2706 9.3608ZM48.2166 10.6648L47.3782 11.2098L47.6739 11.6648H48.2166V10.6648ZM48.5234 10.6648V11.6648H49.5234V10.6648H48.5234ZM48.5234 7.54546V6.54546H47.5234V7.54546H48.5234ZM51.4382 7.54546H52.4382V6.54546H51.4382V7.54546ZM50.2877 31.8608L49.4783 31.2734L49.473 31.2808L50.2877 31.8608ZM47.2195 34.2003L46.8609 33.2668L46.8534 33.2697L47.2195 34.2003ZM45.9155 23.3338L45.3628 22.5005V22.5005L45.9155 23.3338ZM47.8203 20.9432L48.743 21.3289V21.3289L47.8203 20.9432ZM47.8331 13.4645L48.7636 13.0982V13.0982L47.8331 13.4645ZM45.9411 10.9205L45.349 11.7263V11.7263L45.9411 10.9205ZM39.6513 10.9716L39.0462 10.1754L39.0424 10.1784L39.6513 10.9716ZM37.7465 13.5795L36.815 13.2157L36.8126 13.222L37.7465 13.5795ZM37.7592 20.8281L36.8328 21.2047L36.8366 21.2138L37.7592 20.8281ZM39.6769 23.2827L39.0995 24.0992L39.1089 24.1058L39.6769 23.2827ZM42.9496 34.9545V33.9545C41.5735 33.9545 40.4405 33.7769 39.5279 33.4505L39.1911 34.392L38.8542 35.3336C40.0382 35.7572 41.4109 35.9545 42.9496 35.9545V34.9545ZM39.1911 34.392L39.5211 33.4481C38.5685 33.115 37.8113 32.6864 37.2249 32.1787L36.5703 32.9347L35.9157 33.6907C36.7271 34.3931 37.7171 34.9361 38.8611 35.336L39.1911 34.392ZM36.5703 32.9347L37.2242 32.178C36.6025 31.6408 36.1258 31.0811 35.7787 30.5026L34.9212 31.017L34.0637 31.5315C34.5348 32.3167 35.1575 33.0353 35.9165 33.6913L36.5703 32.9347ZM34.9212 31.017L35.4958 31.8355L37.8992 30.148L37.3246 29.3295L36.75 28.5111L34.3465 30.1986L34.9212 31.017ZM37.3246 29.3295L36.5292 29.9356C36.8243 30.323 37.1894 30.7547 37.6195 31.2288L38.3601 30.5568L39.1007 29.8848C38.6956 29.4385 38.3703 29.052 38.12 28.7235L37.3246 29.3295ZM38.3601 30.5568L37.6134 31.222C38.1418 31.8151 38.8332 32.293 39.6474 32.6761L40.0732 31.7713L40.499 30.8665C39.8643 30.5678 39.4136 30.2361 39.1068 29.8916L38.3601 30.5568ZM40.0732 31.7713L39.6428 32.674C40.5574 33.11 41.6791 33.2955 42.9496 33.2955V32.2955V31.2955C41.8508 31.2955 41.0549 31.1315 40.5035 30.8686L40.0732 31.7713ZM42.9496 32.2955V33.2955C44.6987 33.2955 46.2304 32.8701 47.4711 31.9473L46.8743 31.1449L46.2775 30.3425C45.4557 30.9538 44.3709 31.2955 42.9496 31.2955V32.2955ZM46.8743 31.1449L47.4711 31.9473C48.8239 30.9411 49.4212 29.3969 49.4212 27.5398H48.4212H47.4212C47.4212 28.9553 46.9872 29.8146 46.2775 30.3425L46.8743 31.1449ZM48.4212 27.5398H49.4212V23.5511H48.4212H47.4212V27.5398H48.4212ZM48.4212 23.5511V22.5511H48.1655V23.5511V24.5511H48.4212V23.5511ZM48.1655 23.5511L47.3152 23.0248C47.1194 23.3412 46.8273 23.7537 46.4287 24.2685L47.2195 24.8807L48.0102 25.4929C48.4298 24.9509 48.7684 24.477 49.0158 24.0775L48.1655 23.5511ZM47.2195 24.8807L46.4273 24.2703C46.1348 24.65 45.678 25.0316 45.0061 25.394L45.4808 26.2742L45.9555 27.1543C46.8007 26.6985 47.503 26.1511 48.0116 25.491L47.2195 24.8807ZM45.4808 26.2742L45.0097 25.3921C44.4595 25.6859 43.6283 25.875 42.4382 25.875V26.875V27.875C43.8049 27.875 45.0021 27.6635 45.9519 27.1562L45.4808 26.2742ZM42.4382 26.875V25.875C41.0179 25.875 39.7738 25.5412 38.6794 24.8905L38.1683 25.75L37.6573 26.6095C39.0856 27.4588 40.688 27.875 42.4382 27.875V26.875ZM38.1683 25.75L38.682 24.892C37.6059 24.2478 36.7364 23.3042 36.0798 22.0216L35.1896 22.4773L34.2995 22.9329C35.1088 24.514 36.2251 25.7522 37.6547 26.608L38.1683 25.75ZM35.1896 22.4773L36.0819 22.0258C35.4451 20.7671 35.103 19.1918 35.103 17.2614H34.103H33.103C33.103 19.4218 33.4854 21.3239 34.2973 22.9287L35.1896 22.4773ZM34.103 17.2614H35.103C35.103 15.3664 35.4361 13.7672 36.0676 12.4356L35.1641 12.0071L34.2605 11.5786C33.4773 13.23 33.103 15.1336 33.103 17.2614H34.103ZM35.1641 12.0071L36.0685 12.4336C36.705 11.084 37.572 10.0754 38.6614 9.36879L38.1172 8.52983L37.573 7.69087C36.1397 8.62059 35.0379 9.93016 34.2596 11.5806L35.1641 12.0071ZM38.1172 8.52983L38.6654 9.3662C39.7482 8.65648 41.0112 8.28977 42.4894 8.28977V7.28977V6.28977C40.6607 6.28977 39.0089 6.74978 37.569 7.69346L38.1172 8.52983ZM42.4894 7.28977V8.28977C43.6721 8.28977 44.494 8.48939 45.038 8.79844L45.532 7.92898L46.026 7.05952C45.0699 6.5163 43.8634 6.28977 42.4894 6.28977V7.28977ZM45.532 7.92898L45.0497 8.80499C45.7183 9.1731 46.175 9.56451 46.4691 9.95876L47.2706 9.3608L48.0721 8.76283C47.5651 8.08322 46.8627 7.52008 46.0143 7.05297L45.532 7.92898ZM47.2706 9.3608L46.4799 9.97297C46.8814 10.4915 47.178 10.9018 47.3782 11.2098L48.2166 10.6648L49.0551 10.1198C48.8121 9.74597 48.478 9.28688 48.0613 8.74862L47.2706 9.3608ZM48.2166 10.6648V11.6648H48.5234V10.6648V9.66477H48.2166V10.6648ZM48.5234 10.6648H49.5234V7.54546H48.5234H47.5234V10.6648H48.5234ZM48.5234 7.54546V8.54546H51.4382V7.54546V6.54546H48.5234V7.54546ZM51.4382 7.54546H50.4382V27.7443H51.4382H52.4382V7.54546H51.4382ZM51.4382 27.7443H50.4382C50.4382 29.2825 50.0896 30.4313 49.4784 31.2734L50.2877 31.8608L51.097 32.4482C52.0198 31.1767 52.4382 29.5812 52.4382 27.7443H51.4382ZM50.2877 31.8608L49.473 31.2808C48.8348 32.1772 47.9749 32.8389 46.8609 33.2668L47.2195 34.2003L47.578 35.1338C49.038 34.573 50.2234 33.6751 51.1023 32.4408L50.2877 31.8608ZM47.2195 34.2003L46.8534 33.2697C45.7069 33.7206 44.41 33.9545 42.9496 33.9545V34.9545V35.9545C44.6255 35.9545 46.1752 35.6856 47.5855 35.1309L47.2195 34.2003ZM42.8473 24.1648V25.1648C44.2129 25.1648 45.4378 24.8506 46.4682 24.1672L45.9155 23.3338L45.3628 22.5005C44.7227 22.925 43.9022 23.1648 42.8473 23.1648V24.1648ZM45.9155 23.3338L46.4682 24.1672C47.4884 23.4906 48.2418 22.5277 48.743 21.3289L47.8203 20.9432L46.8977 20.5575C46.5295 21.4383 46.0131 22.0691 45.3628 22.5005L45.9155 23.3338ZM47.8203 20.9432L48.743 21.3289C49.241 20.1374 49.4723 18.7553 49.4723 17.2102H48.4723H47.4723C47.4723 18.5629 47.269 19.6694 46.8977 20.5575L47.8203 20.9432ZM48.4723 17.2102H49.4723C49.4723 15.6964 49.2444 14.3195 48.7636 13.0982L47.8331 13.4645L46.9026 13.8308C47.2741 14.7743 47.4723 15.8945 47.4723 17.2102H48.4723ZM47.8331 13.4645L48.7636 13.0982C48.2771 11.8624 47.5384 10.8532 46.5331 10.1146L45.9411 10.9205L45.349 11.7263C46.0141 12.215 46.5369 12.9018 46.9026 13.8308L47.8331 13.4645ZM45.9411 10.9205L46.5331 10.1146C45.4963 9.35284 44.2472 9 42.8473 9V10V11C43.902 11 44.7153 11.2608 45.349 11.7263L45.9411 10.9205ZM42.8473 10V9C41.3941 9 40.1044 9.37121 39.0462 10.1754L39.6513 10.9716L40.2564 11.7678C40.9027 11.2765 41.7437 11 42.8473 11V10ZM39.6513 10.9716L39.0424 10.1784C38.0396 10.9482 37.3006 11.9726 36.815 13.2157L37.7465 13.5795L38.6779 13.9434C39.0446 13.0046 39.5755 12.2905 40.2602 11.7648L39.6513 10.9716ZM37.7465 13.5795L36.8126 13.222C36.3456 14.4417 36.12 15.7752 36.12 17.2102H37.12H38.12C38.12 15.9862 38.312 14.8992 38.6804 13.9371L37.7465 13.5795ZM37.12 17.2102H36.12C36.12 18.6771 36.3492 20.015 36.8329 21.2047L37.7592 20.8281L38.6856 20.4515C38.317 19.5447 38.12 18.4706 38.12 17.2102H37.12ZM37.7592 20.8281L36.8366 21.2138C37.3369 22.4105 38.0887 23.3845 39.0995 24.0992L39.6769 23.2827L40.2542 22.4662C39.5775 21.9877 39.0509 21.3253 38.6819 20.4424L37.7592 20.8281ZM39.6769 23.2827L39.1089 24.1058C40.1617 24.8321 41.4279 25.1648 42.8473 25.1648V24.1648V23.1648C41.7439 23.1648 40.8966 22.9093 40.2448 22.4596L39.6769 23.2827ZM60.272 26.3253L59.7362 27.1696L59.7386 27.1712L60.272 26.3253ZM57.1527 22.7841L56.2543 23.2232L56.2563 23.2273L57.1527 22.7841ZM57.1527 12.1094L56.2553 11.6682L56.2533 11.6722L57.1527 12.1094ZM60.272 8.5554L59.7386 7.70952L59.7362 7.71107L60.272 8.5554ZM69.5916 8.5554L69.0558 9.39973L69.0582 9.40127L69.5916 8.5554ZM72.711 12.1094L71.8115 12.5465L71.8135 12.5506L72.711 12.1094ZM72.711 22.7841L71.8145 22.3409L71.8125 22.345L72.711 22.7841ZM69.5916 26.3253L69.0582 25.4794L69.0558 25.481L69.5916 26.3253ZM68.2621 23.8452L67.6402 23.0621V23.0621L68.2621 23.8452ZM70.1925 21.1222L71.13 21.4702V21.4702L70.1925 21.1222ZM70.1925 13.7969L71.1308 13.4512V13.4512L70.1925 13.7969ZM68.2621 11.0483L68.8886 10.2689V10.2689L68.2621 11.0483ZM61.6144 11.0483L60.9878 10.2689V10.2689L61.6144 11.0483ZM59.684 13.7969L58.7456 13.4512V13.4512L59.684 13.7969ZM59.684 21.1222L58.7465 21.4702V21.4702L59.684 21.1222ZM61.6144 23.8452L62.2362 23.0621V23.0621L61.6144 23.8452ZM64.9382 27.5909V26.5909C63.3308 26.5909 61.965 26.2106 60.8054 25.4794L60.272 26.3253L59.7386 27.1712C61.2551 28.1274 63.0002 28.5909 64.9382 28.5909V27.5909ZM60.272 26.3253L60.8079 25.481C59.6446 24.7427 58.7243 23.7065 58.0491 22.3409L57.1527 22.7841L56.2563 23.2273C57.0812 24.8958 58.2404 26.2204 59.7362 27.1696L60.272 26.3253ZM57.1527 22.7841L58.0511 22.345C57.3886 20.9895 57.0405 19.3724 57.0405 17.4659H56.0405H55.0405C55.0405 19.6163 55.4338 21.5446 56.2543 23.2232L57.1527 22.7841ZM56.0405 17.4659H57.0405C57.0405 15.5412 57.3891 13.9107 58.0521 12.5465L57.1527 12.1094L56.2533 11.6722C55.4334 13.3592 55.0405 15.2998 55.0405 17.4659H56.0405ZM57.1527 12.1094L58.0501 12.5506C58.7257 11.1764 59.646 10.1371 60.8079 9.39973L60.272 8.5554L59.7362 7.71107C58.239 8.66122 57.0798 9.99117 56.2553 11.6682L57.1527 12.1094ZM60.272 8.5554L60.8054 9.40127C61.965 8.67004 63.3308 8.28977 64.9382 8.28977V7.28977V6.28977C63.0002 6.28977 61.2551 6.75326 59.7386 7.70953L60.272 8.5554ZM64.9382 7.28977V8.28977C66.5458 8.28977 67.906 8.67006 69.0558 9.39973L69.5916 8.5554L70.1275 7.71107C68.6181 6.75323 66.8761 6.28977 64.9382 6.28977V7.28977ZM69.5916 8.5554L69.0582 9.40127C70.2271 10.1383 71.1454 11.176 71.8116 12.5465L72.711 12.1094L73.6103 11.6722C72.7935 9.99159 71.6323 8.65996 70.125 7.70953L69.5916 8.5554ZM72.711 12.1094L71.8135 12.5506C72.4837 13.9137 72.836 15.5427 72.836 17.4659H73.836H74.836C74.836 15.2982 74.4382 13.3562 73.6084 11.6682L72.711 12.1094ZM73.836 17.4659H72.836C72.836 19.3708 72.4842 20.9864 71.8145 22.3409L72.711 22.7841L73.6074 23.2273C74.4377 21.5477 74.836 19.6178 74.836 17.4659H73.836ZM72.711 22.7841L71.8125 22.345C71.1469 23.7069 70.2285 24.7415 69.0582 25.4794L69.5916 26.3253L70.125 27.1712C71.6309 26.2216 72.7921 24.8954 73.6094 23.2232L72.711 22.7841ZM69.5916 26.3253L69.0558 25.481C67.906 26.2106 66.5458 26.5909 64.9382 26.5909V27.5909V28.5909C66.8761 28.5909 68.6181 28.1275 70.1275 27.1696L69.5916 26.3253ZM64.9382 24.8807V25.8807C66.461 25.8807 67.8025 25.4871 68.884 24.6283L68.2621 23.8452L67.6402 23.0621C66.9831 23.5839 66.1086 23.8807 64.9382 23.8807V24.8807ZM68.2621 23.8452L68.884 24.6283C69.9078 23.8153 70.6542 22.7519 71.13 21.4702L70.1925 21.1222L69.255 20.7742C68.8956 21.7424 68.355 22.4944 67.6402 23.0621L68.2621 23.8452ZM70.1925 21.1222L71.13 21.4702C71.5926 20.2238 71.8189 18.8861 71.8189 17.4659H70.8189H69.8189C69.8189 18.6708 69.6276 19.7705 69.255 20.7742L70.1925 21.1222ZM70.8189 17.4659H71.8189C71.8189 16.0457 71.5926 14.7046 71.1308 13.4512L70.1925 13.7969L69.2541 14.1426C69.6276 15.1562 69.8189 16.2612 69.8189 17.4659H70.8189ZM70.1925 13.7969L71.1308 13.4512C70.6559 12.1621 69.911 11.0908 68.8886 10.2689L68.2621 11.0483L67.6355 11.8277C68.3519 12.4035 68.8938 13.1646 69.2541 14.1426L70.1925 13.7969ZM68.2621 11.0483L68.8886 10.2689C67.807 9.39938 66.4638 9 64.9382 9V10V11C66.1058 11 66.9785 11.2995 67.6355 11.8277L68.2621 11.0483ZM64.9382 10V9C63.4126 9 62.0694 9.39938 60.9878 10.2689L61.6144 11.0483L62.2409 11.8277C62.8979 11.2995 63.7706 11 64.9382 11V10ZM61.6144 11.0483L60.9878 10.2689C59.9655 11.0908 59.2205 12.1621 58.7456 13.4512L59.684 13.7969L60.6223 14.1426C60.9826 13.1646 61.5246 12.4035 62.2409 11.8277L61.6144 11.0483ZM59.684 13.7969L58.7456 13.4512C58.2838 14.7046 58.0575 16.0457 58.0575 17.4659H59.0575H60.0575C60.0575 16.2612 60.2489 15.1562 60.6223 14.1426L59.684 13.7969ZM59.0575 17.4659H58.0575C58.0575 18.8861 58.2838 20.2238 58.7465 21.4702L59.684 21.1222L60.6215 20.7742C60.2489 19.7705 60.0575 18.6708 60.0575 17.4659H59.0575ZM59.684 21.1222L58.7465 21.4702C59.2223 22.7519 59.9687 23.8153 60.9925 24.6283L61.6144 23.8452L62.2362 23.0621C61.5214 22.4944 60.9809 21.7424 60.6215 20.7742L59.684 21.1222ZM61.6144 23.8452L60.9925 24.6283C62.074 25.4871 63.4155 25.8807 64.9382 25.8807V24.8807V23.8807C63.7678 23.8807 62.8934 23.5839 62.2362 23.0621L61.6144 23.8452Z" fill="black" mask="url(#path-1-outside-1_139_92)"/>
</g>
<defs>
<filter id="filter0_d_139_92" x="0" y="0" width="78.8359" height="43.9545" filterUnits="userSpaceOnUse" color-interpolation-filters="sRGB">
<feFlood flood-opacity="0" result="BackgroundImageFix"/>
<feColorMatrix in="SourceAlpha" type="matrix" values="0 0 0 0 0 0 0 0 0 0 0 0 0 0 0 0 0 0 127 0" result="hardAlpha"/>
<feOffset dy="4"/>
<feGaussianBlur stdDeviation="2"/>
<feComposite in2="hardAlpha" operator="out"/>
<feColorMatrix type="matrix" values="0 0 0 0 0 0 0 0 0 0 0 0 0 0 0 0 0 0 0.25 0"/>
<feBlend mode="normal" in2="BackgroundImageFix" result="effect1_dropShadow_139_92"/>
<feBlend mode="normal" in="SourceGraphic" in2="effect1_dropShadow_139_92" result="shape"/>
</filter>
</defs>
</svg>
